<svg xmlns="http://www.w3.org/2000/svg" xmlns:xlink="http://www.w3.org/1999/xlink" contentStyleType="text/css" data-diagram-type="SEQUENCE" height="2717px" preserveAspectRatio="none" style="width:1027px;height:2717px;background:#FFFFFF;" version="1.1" viewBox="0 0 1027 2717" width="1027px" zoomAndPan="magnify"><title>window &#26700;&#38754;&#29615;&#22659; &#8212;&#8212; &#31383;&#21475;&#29366;&#24577;&#27969;&#36716;&#26102;&#24207;&#22270;</title><defs/><g><text fill="#000000" font-family="'Noto Serif CJK SC'" font-size="14" font-weight="bold" lengthAdjust="spacing" textLength="275.3648" x="371.8619" y="31.1139">window &#26700;&#38754;&#29615;&#22659; &#8212;&#8212; &#31383;&#21475;&#29366;&#24577;&#27969;&#36716;&#26102;&#24207;&#22270;</text><rect fill="none" height="324.7429" style="stroke:#000000;stroke-width:1.5;" width="598.9165" x="332.3403" y="1623.3414"/><rect fill="none" height="279.1878" style="stroke:#000000;stroke-width:1.5;" width="607.5615" x="332.3403" y="2041.5893"/><g><title>User</title><rect fill="#000000" fill-opacity="0.00000" height="2465.7065" width="8" x="51.4738" y="146.6617"/><line style="stroke:#181818;stroke-width:0.5;stroke-dasharray:5,5;" x1="55" x2="55" y1="146.6617" y2="2612.3682"/></g><g><title>UIDesktop</title><rect fill="#000000" fill-opacity="0.00000" height="2465.7065" width="8" x="381.4811" y="146.6617"/><line style="stroke:#181818;stroke-width:0.5;stroke-dasharray:5,5;" x1="385.3403" x2="385.3403" y1="146.6617" y2="2612.3682"/></g><g><title>UIObj</title><rect fill="#000000" fill-opacity="0.00000" height="2465.7065" width="8" x="718.2485" y="146.6617"/><line style="stroke:#181818;stroke-width:0.5;stroke-dasharray:5,5;" x1="721.2977" x2="721.2977" y1="146.6617" y2="2612.3682"/></g><g><title>DockBar</title><rect fill="#000000" fill-opacity="0.00000" height="2465.7065" width="8" x="958.6308" y="146.6617"/><line style="stroke:#181818;stroke-width:0.5;stroke-dasharray:5,5;" x1="962.1729" x2="962.1729" y1="146.6617" y2="2612.3682"/></g><g class="participant participant-head" data-participant="User"><text fill="#000000" font-family="'Noto Sans CJK SC'" font-size="14" font-weight="bold" lengthAdjust="spacing" textLength="31.6399" x="36.6539" y="122.3578">User</text><text fill="#000000" font-family="'Noto Sans CJK SC'" font-size="14" font-weight="bold" lengthAdjust="spacing" textLength="94.9476" x="5" y="142.6298">(MouseEvent)</text><ellipse cx="55.4738" cy="54.6179" fill="#E2E2F0" rx="8" ry="8" style="stroke:#181818;stroke-width:0.5;"/><path d="M55.4738,62.6179 L55.4738,89.6179 M42.4738,70.6179 L68.4738,70.6179 M55.4738,89.6179 L42.4738,104.6179 M55.4738,89.6179 L68.4738,104.6179" fill="none" style="stroke:#181818;stroke-width:0.5;"/></g><g class="participant participant-tail" data-participant="User"><text fill="#000000" font-family="'Noto Sans CJK SC'" font-size="14" font-weight="bold" lengthAdjust="spacing" textLength="31.6399" x="36.6539" y="2627.6081">User</text><text fill="#000000" font-family="'Noto Sans CJK SC'" font-size="14" font-weight="bold" lengthAdjust="spacing" textLength="94.9476" x="5" y="2647.8801">(MouseEvent)</text><ellipse cx="55.4738" cy="2660.412" fill="#E2E2F0" rx="8" ry="8" style="stroke:#181818;stroke-width:0.5;"/><path d="M55.4738,2668.412 L55.4738,2695.412 M42.4738,2676.412 L68.4738,2676.412 M55.4738,2695.412 L42.4738,2710.412 M55.4738,2695.412 L68.4738,2710.412" fill="none" style="stroke:#181818;stroke-width:0.5;"/></g><g class="participant participant-head" data-participant="Desktop"><rect fill="#E2E2F0" height="54.5438" rx="2.5" ry="2.5" style="stroke:#181818;stroke-width:0.5;" width="86.2817" x="342.3403" y="91.1179"/><text fill="#000000" font-family="'Noto Sans CJK SC'" font-size="14" font-weight="bold" lengthAdjust="spacing" textLength="72.2817" x="349.3403" y="114.3578">UIDesktop</text><text fill="#000000" font-family="'Noto Sans CJK SC'" font-size="14" font-weight="bold" lengthAdjust="spacing" textLength="57.1898" x="356.8863" y="134.6298">Desktop</text></g><g class="participant participant-tail" data-participant="Desktop"><rect fill="#E2E2F0" height="54.5438" rx="2.5" ry="2.5" style="stroke:#181818;stroke-width:0.5;" width="86.2817" x="342.3403" y="2611.3682"/><text fill="#000000" font-family="'Noto Sans CJK SC'" font-size="14" font-weight="bold" lengthAdjust="spacing" textLength="72.2817" x="349.3403" y="2634.6081">UIDesktop</text><text fill="#000000" font-family="'Noto Sans CJK SC'" font-size="14" font-weight="bold" lengthAdjust="spacing" textLength="57.1898" x="356.8863" y="2654.8801">Desktop</text></g><g class="participant participant-head" data-participant="Win"><rect fill="#E2E2F0" height="54.5438" rx="2.5" ry="2.5" style="stroke:#181818;stroke-width:0.5;" width="69.9018" x="687.2977" y="91.1179"/><text fill="#000000" font-family="'Noto Sans CJK SC'" font-size="14" font-weight="bold" lengthAdjust="spacing" textLength="39.1718" x="702.6626" y="114.3578">UIObj</text><text fill="#000000" font-family="'Noto Sans CJK SC'" font-size="14" font-weight="bold" lengthAdjust="spacing" textLength="55.9018" x="694.2977" y="134.6298">Window</text></g><g class="participant participant-tail" data-participant="Win"><rect fill="#E2E2F0" height="54.5438" rx="2.5" ry="2.5" style="stroke:#181818;stroke-width:0.5;" width="69.9018" x="687.2977" y="2611.3682"/><text fill="#000000" font-family="'Noto Sans CJK SC'" font-size="14" font-weight="bold" lengthAdjust="spacing" textLength="39.1718" x="702.6626" y="2634.6081">UIObj</text><text fill="#000000" font-family="'Noto Sans CJK SC'" font-size="14" font-weight="bold" lengthAdjust="spacing" textLength="55.9018" x="694.2977" y="2654.8801">Window</text></g><g class="participant participant-head" data-participant="Dock"><rect fill="#E2E2F0" height="54.5438" rx="2.5" ry="2.5" style="stroke:#181818;stroke-width:0.5;" width="104.9156" x="910.1729" y="91.1179"/><text fill="#000000" font-family="'Noto Sans CJK SC'" font-size="14" font-weight="bold" lengthAdjust="spacing" textLength="58.5058" x="933.3779" y="114.3578">DockBar</text><text fill="#000000" font-family="'Noto Sans CJK SC'" font-size="14" font-weight="bold" lengthAdjust="spacing" textLength="90.9156" x="917.1729" y="134.6298">TaskDockBar</text></g><g class="participant participant-tail" data-participant="Dock"><rect fill="#E2E2F0" height="54.5438" rx="2.5" ry="2.5" style="stroke:#181818;stroke-width:0.5;" width="104.9156" x="910.1729" y="2611.3682"/><text fill="#000000" font-family="'Noto Sans CJK SC'" font-size="14" font-weight="bold" lengthAdjust="spacing" textLength="58.5058" x="933.3779" y="2634.6081">DockBar</text><text fill="#000000" font-family="'Noto Sans CJK SC'" font-size="14" font-weight="bold" lengthAdjust="spacing" textLength="90.9156" x="917.1729" y="2654.8801">TaskDockBar</text></g><rect fill="#EEEEEE" height="3" style="stroke:#EEEEEE;stroke-width:1;" width="1020.0886" x="0" y="179.0737"/><line style="stroke:#000000;stroke-width:1;" x1="0" x2="1020.0886" y1="179.0737" y2="179.0737"/><line style="stroke:#000000;stroke-width:1;" x1="0" x2="1020.0886" y1="182.0737" y2="182.0737"/><rect fill="#EEEEEE" height="26.824" style="stroke:#000000;stroke-width:2;" width="101.3861" x="459.3512" y="166.6617"/><text fill="#000000" font-family="'Noto Sans CJK SC'" font-size="13" font-weight="bold" lengthAdjust="spacing" textLength="84.4351" x="465.3512" y="185.7417">1. Create Win</text><g class="message" data-participant-1="User" data-participant-2="Win"><polygon fill="#181818" points="710.2485,242.8478,720.2485,246.8478,710.2485,250.8478,714.2485,246.8478" style="stroke:#181818;stroke-width:1;"/><line style="stroke:#181818;stroke-width:1;" x1="55.4738" x2="716.2485" y1="246.8478" y2="246.8478"/><text fill="#000000" font-family="'Noto Serif CJK SC'" font-size="13" lengthAdjust="spacing" textLength="107.0811" x="335.3206" y="222.4488">new + renderIn()</text><text fill="#000000" font-family="'Noto Serif CJK SC'" font-size="13" lengthAdjust="spacing" textLength="279.7083" x="249.007" y="241.1298">(&#26500;&#36896;&#26102;&#20165;&#24314; win/titleBar/windowBody &#31354; div)</text></g><g class="message" data-participant-1="Win" data-participant-2="Desktop"><polygon fill="#181818" points="396.4811,294.2098,386.4811,298.2098,396.4811,302.2098,392.4811,298.2098" style="stroke:#181818;stroke-width:1;"/><line style="stroke:#181818;stroke-width:1;" x1="390.4811" x2="721.2485" y1="298.2098" y2="298.2098"/><text fill="#000000" font-family="'Noto Serif CJK SC'" font-size="13" lengthAdjust="spacing" textLength="261.7162" x="423.0067" y="273.8108">renderWindowTplt(win, body, statusBar)</text><text fill="#000000" font-family="'Noto Serif CJK SC'" font-size="13" lengthAdjust="spacing" textLength="165.1522" x="471.2887" y="292.4918">&#25340;&#35013;&#26631;&#39064;&#26639;&#22270;&#26631;/&#25353;&#38062;/&#29366;&#24577;&#26639;</text></g><g class="message" data-participant-1="Win" data-participant-2="Win"><line style="stroke:#181818;stroke-width:1;" x1="722.2485" x2="764.2485" y1="349.5718" y2="349.5718"/><line style="stroke:#181818;stroke-width:1;" x1="764.2485" x2="764.2485" y1="349.5718" y2="362.5718"/><line style="stroke:#181818;stroke-width:1;" x1="723.2485" x2="764.2485" y1="362.5718" y2="362.5718"/><polygon fill="#181818" points="733.2485,358.5718,723.2485,362.5718,733.2485,366.5718,729.2485,362.5718" style="stroke:#181818;stroke-width:1;"/><text fill="#000000" font-family="'Noto Serif CJK SC'" font-size="13" lengthAdjust="spacing" textLength="219.5312" x="732.674" y="325.1728">bindWinOptActive/Close/Max/Min</text><text fill="#000000" font-family="'Noto Serif CJK SC'" font-size="13" lengthAdjust="spacing" textLength="226.3822" x="729.2485" y="343.8538">bindWindowDragSelect/ScaleSelect</text></g><g class="message" data-participant-1="Desktop" data-participant-2="Win"><polygon fill="#181818" points="710.2485,391.2529,720.2485,395.2529,710.2485,399.2529,714.2485,395.2529" style="stroke:#181818;stroke-width:1;"/><line style="stroke:#181818;stroke-width:1;" x1="385.4811" x2="716.2485" y1="395.2529" y2="395.2529"/><text fill="#000000" font-family="'Noto Serif CJK SC'" font-size="13" lengthAdjust="spacing" textLength="189.5142" x="459.1078" y="389.5349">getNewWindowPosition(w, h)</text></g><g class="message" data-participant-1="Desktop" data-participant-2="Desktop"><line style="stroke:#181818;stroke-width:1;" x1="385.4811" x2="427.4811" y1="446.6149" y2="446.6149"/><line style="stroke:#181818;stroke-width:1;" x1="427.4811" x2="427.4811" y1="446.6149" y2="459.6149"/><line style="stroke:#181818;stroke-width:1;" x1="386.4811" x2="427.4811" y1="459.6149" y2="459.6149"/><polygon fill="#181818" points="396.4811,455.6149,386.4811,459.6149,396.4811,463.6149,392.4811,459.6149" style="stroke:#181818;stroke-width:1;"/><text fill="#000000" font-family="'Noto Serif CJK SC'" font-size="13" lengthAdjust="spacing" textLength="110.2791" x="460.4647" y="422.2159">addWindow(win)</text><text fill="#000000" font-family="'Noto Serif CJK SC'" font-size="13" lengthAdjust="spacing" textLength="246.2462" x="392.4811" y="440.8969">allWindows.put + windowZIndex.push</text></g><g class="message" data-participant-1="Desktop" data-participant-2="Dock"><polygon fill="#181818" points="950.6308,488.2959,960.6308,492.2959,950.6308,496.2959,954.6308,492.2959" style="stroke:#181818;stroke-width:1;"/><line style="stroke:#181818;stroke-width:1;" x1="385.4811" x2="956.6308" y1="492.2959" y2="492.2959"/><text fill="#000000" font-family="'Noto Serif CJK SC'" font-size="13" lengthAdjust="spacing" textLength="85.4621" x="631.3249" y="486.5779">addIcon(win)</text></g><g class="message" data-participant-1="Dock" data-participant-2="Win"><polygon fill="#181818" points="733.2485,539.6579,723.2485,543.6579,733.2485,547.6579,729.2485,543.6579" style="stroke:#181818;stroke-width:1;"/><line style="stroke:#181818;stroke-width:1;" x1="727.2485" x2="961.6308" y1="543.6579" y2="543.6579"/><text fill="#000000" font-family="'Noto Serif CJK SC'" font-size="13" lengthAdjust="spacing" textLength="173.0952" x="755.8921" y="519.2589">bindWinOptMin(win, icon)</text><text fill="#000000" font-family="'Noto Serif CJK SC'" font-size="13" lengthAdjust="spacing" textLength="113.4641" x="785.7076" y="537.9399">(&#22270;&#26631;&#21363;&#26368;&#23567;&#21270;&#25353;&#38062;)</text></g><rect fill="#EEEEEE" height="3" style="stroke:#EEEEEE;stroke-width:1;" width="1020.0886" x="0" y="574.0699"/><line style="stroke:#000000;stroke-width:1;" x1="0" x2="1020.0886" y1="574.0699" y2="574.0699"/><line style="stroke:#000000;stroke-width:1;" x1="0" x2="1020.0886" y1="577.0699" y2="577.0699"/><rect fill="#EEEEEE" height="26.824" style="stroke:#000000;stroke-width:2;" width="107.0151" x="456.5367" y="561.6579"/><text fill="#000000" font-family="'Noto Sans CJK SC'" font-size="13" font-weight="bold" lengthAdjust="spacing" textLength="90.0641" x="462.5367" y="580.7379">2. Active / Top</text><g class="message" data-participant-1="User" data-participant-2="Win"><polygon fill="#181818" points="710.2485,619.163,720.2485,623.163,710.2485,627.163,714.2485,623.163" style="stroke:#181818;stroke-width:1;"/><line style="stroke:#181818;stroke-width:1;" x1="55.4738" x2="716.2485" y1="623.163" y2="623.163"/><text fill="#000000" font-family="'Noto Serif CJK SC'" font-size="13" lengthAdjust="spacing" textLength="168.3502" x="304.6861" y="617.445">mousedown (&#31383;&#21475;&#20219;&#24847;&#20301;&#32622;)</text></g><g class="message" data-participant-1="Win" data-participant-2="Desktop"><polygon fill="#181818" points="396.4811,651.844,386.4811,655.844,396.4811,659.844,392.4811,655.844" style="stroke:#181818;stroke-width:1;"/><line style="stroke:#181818;stroke-width:1;" x1="390.4811" x2="721.2485" y1="655.844" y2="655.844"/><text fill="#000000" font-family="'Noto Serif CJK SC'" font-size="13" lengthAdjust="spacing" textLength="120.3151" x="493.7073" y="650.126">optWinActive(win)</text></g><g class="message" data-participant-1="Desktop" data-participant-2="Desktop"><line style="stroke:#181818;stroke-width:1;" x1="385.4811" x2="427.4811" y1="707.206" y2="707.206"/><line style="stroke:#181818;stroke-width:1;" x1="427.4811" x2="427.4811" y1="707.206" y2="720.206"/><line style="stroke:#181818;stroke-width:1;" x1="386.4811" x2="427.4811" y1="720.206" y2="720.206"/><polygon fill="#181818" points="396.4811,716.206,386.4811,720.206,396.4811,724.206,392.4811,720.206" style="stroke:#181818;stroke-width:1;"/><text fill="#000000" font-family="'Noto Serif CJK SC'" font-size="13" lengthAdjust="spacing" textLength="157.7162" x="403.5312" y="682.807">reorderWindows(win.id)</text><text fill="#000000" font-family="'Noto Serif CJK SC'" font-size="13" lengthAdjust="spacing" textLength="179.8162" x="392.4811" y="701.488">&#20854;&#20313;&#31383;&#21475;&#38477;&#23618;&#12289;&#37325;&#20998;&#37197; z-index</text></g><g class="message" data-participant-1="Desktop" data-participant-2="Win"><polygon fill="#181818" points="710.2485,748.887,720.2485,752.887,710.2485,756.887,714.2485,752.887" style="stroke:#181818;stroke-width:1;"/><line style="stroke:#181818;stroke-width:1;" x1="385.4811" x2="716.2485" y1="752.887" y2="752.887"/><text fill="#000000" font-family="'Noto Serif CJK SC'" font-size="13" lengthAdjust="spacing" textLength="312.7674" x="397.4811" y="747.169">activeWindow(true)  &#8594; isTop = true, &#31227;&#38500; inactive</text></g><g class="message" data-participant-1="Desktop" data-participant-2="Win"><polygon fill="#181818" points="710.2485,781.568,720.2485,785.568,710.2485,789.568,714.2485,785.568" style="stroke:#181818;stroke-width:1;"/><line style="stroke:#181818;stroke-width:1;" x1="385.4811" x2="716.2485" y1="785.568" y2="785.568"/><text fill="#000000" font-family="'Noto Serif CJK SC'" font-size="13" lengthAdjust="spacing" textLength="123.5781" x="492.0758" y="779.85">setZIndex(2000 + n)</text></g><rect fill="#EEEEEE" height="3" style="stroke:#EEEEEE;stroke-width:1;" width="1020.0886" x="0" y="815.98"/><line style="stroke:#000000;stroke-width:1;" x1="0" x2="1020.0886" y1="815.98" y2="815.98"/><line style="stroke:#000000;stroke-width:1;" x1="0" x2="1020.0886" y1="818.98" y2="818.98"/><rect fill="#EEEEEE" height="26.824" style="stroke:#000000;stroke-width:2;" width="89.3221" x="465.3833" y="803.568"/><text fill="#000000" font-family="'Noto Sans CJK SC'" font-size="13" font-weight="bold" lengthAdjust="spacing" textLength="72.3711" x="471.3833" y="822.6481">3. Drag Win</text><g class="message" data-participant-1="User" data-participant-2="Win"><polygon fill="#181818" points="710.2485,861.0731,720.2485,865.0731,710.2485,869.0731,714.2485,865.0731" style="stroke:#181818;stroke-width:1;"/><line style="stroke:#181818;stroke-width:1;" x1="55.4738" x2="716.2485" y1="865.0731" y2="865.0731"/><text fill="#000000" font-family="'Noto Serif CJK SC'" font-size="13" lengthAdjust="spacing" textLength="166.9332" x="305.3946" y="859.3551">titleBar mousedown (&#36873;&#20013;)</text></g><g class="message" data-participant-1="Win" data-participant-2="Desktop"><polygon fill="#181818" points="396.4811,912.4351,386.4811,916.4351,396.4811,920.4351,392.4811,916.4351" style="stroke:#181818;stroke-width:1;"/><line style="stroke:#181818;stroke-width:1;" x1="390.4811" x2="721.2485" y1="916.4351" y2="916.4351"/><text fill="#000000" font-family="'Noto Serif CJK SC'" font-size="13" lengthAdjust="spacing" textLength="155.3892" x="476.1703" y="892.0361">setCurrDragging({ win })</text><text fill="#000000" font-family="'Noto Serif CJK SC'" font-size="13" lengthAdjust="spacing" textLength="113.7891" x="496.9703" y="910.7171">dragging.win &#23601;&#20301;</text></g><g class="message" data-participant-1="User" data-participant-2="Desktop"><polygon fill="#181818" points="373.4811,945.1161,383.4811,949.1161,373.4811,953.1161,377.4811,949.1161" style="stroke:#181818;stroke-width:1;"/><line style="stroke:#181818;stroke-width:1;" x1="55.4738" x2="379.4811" y1="949.1161" y2="949.1161"/><text fill="#000000" font-family="'Noto Serif CJK SC'" font-size="13" lengthAdjust="spacing" textLength="306.0073" x="67.4738" y="943.3981">desktopDiv mousedown (&#20882;&#27873;, setTimeout 10ms)</text></g><g class="message" data-participant-1="Desktop" data-participant-2="Desktop"><line style="stroke:#181818;stroke-width:1;" x1="385.4811" x2="427.4811" y1="981.7971" y2="981.7971"/><line style="stroke:#181818;stroke-width:1;" x1="427.4811" x2="427.4811" y1="981.7971" y2="994.7971"/><line style="stroke:#181818;stroke-width:1;" x1="386.4811" x2="427.4811" y1="994.7971" y2="994.7971"/><polygon fill="#181818" points="396.4811,990.7971,386.4811,994.7971,396.4811,998.7971,392.4811,994.7971" style="stroke:#181818;stroke-width:1;"/><text fill="#000000" font-family="'Noto Serif CJK SC'" font-size="13" lengthAdjust="spacing" textLength="159.3152" x="392.4811" y="976.0791">&#35760;&#24405; moveStart / winStart</text></g><g class="message" data-participant-1="User" data-participant-2="Desktop"><polygon fill="#181818" points="373.4811,1023.4781,383.4811,1027.4781,373.4811,1031.4781,377.4811,1027.4781" style="stroke:#181818;stroke-width:1;"/><line style="stroke:#181818;stroke-width:1;" x1="55.4738" x2="379.4811" y1="1027.4781" y2="1027.4781"/><text fill="#000000" font-family="'Noto Serif CJK SC'" font-size="13" lengthAdjust="spacing" textLength="115.5701" x="162.6924" y="1021.7601">mousemove (&#20840;&#23616;)</text></g><g class="message" data-participant-1="Desktop" data-participant-2="Win"><polygon fill="#181818" points="710.2485,1056.1592,720.2485,1060.1592,710.2485,1064.1592,714.2485,1060.1592" style="stroke:#181818;stroke-width:1;"/><line style="stroke:#181818;stroke-width:1;" x1="385.4811" x2="716.2485" y1="1060.1592" y2="1060.1592"/><text fill="#000000" font-family="'Noto Serif CJK SC'" font-size="13" lengthAdjust="spacing" textLength="210.6913" x="448.5192" y="1054.4412">style.left/top = winStart + (dx, dy)</text></g><g class="message" data-participant-1="User" data-participant-2="Desktop"><polygon fill="#181818" points="373.4811,1088.8402,383.4811,1092.8402,373.4811,1096.8402,377.4811,1092.8402" style="stroke:#181818;stroke-width:1;"/><line style="stroke:#181818;stroke-width:1;" x1="55.4738" x2="379.4811" y1="1092.8402" y2="1092.8402"/><text fill="#000000" font-family="'Noto Serif CJK SC'" font-size="13" lengthAdjust="spacing" textLength="145.2102" x="147.8724" y="1087.1222">mouseup / mouseleave</text></g><g class="message" data-participant-1="Desktop" data-participant-2="Desktop"><line style="stroke:#181818;stroke-width:1;" x1="385.4811" x2="427.4811" y1="1144.2022" y2="1144.2022"/><line style="stroke:#181818;stroke-width:1;" x1="427.4811" x2="427.4811" y1="1144.2022" y2="1157.2022"/><line style="stroke:#181818;stroke-width:1;" x1="386.4811" x2="427.4811" y1="1157.2022" y2="1157.2022"/><polygon fill="#181818" points="396.4811,1153.2022,386.4811,1157.2022,396.4811,1161.2022,392.4811,1157.2022" style="stroke:#181818;stroke-width:1;"/><text fill="#000000" font-family="'Noto Serif CJK SC'" font-size="13" lengthAdjust="spacing" textLength="101.9721" x="416.8627" y="1119.8032">cleanDragging()</text><text fill="#000000" font-family="'Noto Serif CJK SC'" font-size="13" lengthAdjust="spacing" textLength="150.7352" x="392.4811" y="1138.4842">&#28165;&#31354; dragging&#12289;&#24674;&#22797;&#20809;&#26631;</text></g><rect fill="#EEEEEE" height="3" style="stroke:#EEEEEE;stroke-width:1;" width="1020.0886" x="0" y="1187.6142"/><line style="stroke:#000000;stroke-width:1;" x1="0" x2="1020.0886" y1="1187.6142" y2="1187.6142"/><line style="stroke:#000000;stroke-width:1;" x1="0" x2="1020.0886" y1="1190.6142" y2="1190.6142"/><rect fill="#EEEEEE" height="26.824" style="stroke:#000000;stroke-width:2;" width="99.9301" x="460.0792" y="1175.2022"/><text fill="#000000" font-family="'Noto Sans CJK SC'" font-size="13" font-weight="bold" lengthAdjust="spacing" textLength="82.9791" x="466.0792" y="1194.2822">4. Resize Win</text><g class="message" data-participant-1="User" data-participant-2="Win"><polygon fill="#181818" points="710.2485,1232.7072,720.2485,1236.7072,710.2485,1240.7072,714.2485,1236.7072" style="stroke:#181818;stroke-width:1;"/><line style="stroke:#181818;stroke-width:1;" x1="55.4738" x2="716.2485" y1="1236.7072" y2="1236.7072"/><text fill="#000000" font-family="'Noto Serif CJK SC'" font-size="13" lengthAdjust="spacing" textLength="207.3502" x="285.1861" y="1230.9892">winDiv mousedown (&#36793;&#32536; 7px &#20869;)</text></g><g class="message" data-participant-1="Win" data-participant-2="Desktop"><polygon fill="#181818" points="396.4811,1284.0693,386.4811,1288.0693,396.4811,1292.0693,392.4811,1288.0693" style="stroke:#181818;stroke-width:1;"/><line style="stroke:#181818;stroke-width:1;" x1="390.4811" x2="721.2485" y1="1288.0693" y2="1288.0693"/><text fill="#000000" font-family="'Noto Serif CJK SC'" font-size="13" lengthAdjust="spacing" textLength="234.4682" x="436.6307" y="1263.6702">setCurrScaling({ win, direction: 1-9 })</text><text fill="#000000" font-family="'Noto Serif CJK SC'" font-size="13" lengthAdjust="spacing" textLength="82.7971" x="512.4663" y="1282.3513">&#35774; resize &#20809;&#26631;</text></g><g class="message" data-participant-1="User" data-participant-2="Desktop"><polygon fill="#181818" points="373.4811,1316.7503,383.4811,1320.7503,373.4811,1324.7503,377.4811,1320.7503" style="stroke:#181818;stroke-width:1;"/><line style="stroke:#181818;stroke-width:1;" x1="55.4738" x2="379.4811" y1="1320.7503" y2="1320.7503"/><text fill="#000000" font-family="'Noto Serif CJK SC'" font-size="13" lengthAdjust="spacing" textLength="152.4641" x="144.2454" y="1315.0323">desktopDiv mousedown</text></g><g class="message" data-participant-1="Desktop" data-participant-2="Desktop"><line style="stroke:#181818;stroke-width:1;" x1="385.4811" x2="427.4811" y1="1353.4313" y2="1353.4313"/><line style="stroke:#181818;stroke-width:1;" x1="427.4811" x2="427.4811" y1="1353.4313" y2="1366.4313"/><line style="stroke:#181818;stroke-width:1;" x1="386.4811" x2="427.4811" y1="1366.4313" y2="1366.4313"/><polygon fill="#181818" points="396.4811,1362.4313,386.4811,1366.4313,396.4811,1370.4313,392.4811,1366.4313" style="stroke:#181818;stroke-width:1;"/><text fill="#000000" font-family="'Noto Serif CJK SC'" font-size="13" lengthAdjust="spacing" textLength="159.3152" x="392.4811" y="1347.7133">&#35760;&#24405; moveStart / winStart</text></g><g class="message" data-participant-1="User" data-participant-2="Desktop"><polygon fill="#181818" points="373.4811,1395.1123,383.4811,1399.1123,373.4811,1403.1123,377.4811,1399.1123" style="stroke:#181818;stroke-width:1;"/><line style="stroke:#181818;stroke-width:1;" x1="55.4738" x2="379.4811" y1="1399.1123" y2="1399.1123"/><text fill="#000000" font-family="'Noto Serif CJK SC'" font-size="13" lengthAdjust="spacing" textLength="76.7781" x="182.0884" y="1393.3943">mousemove</text></g><g class="message" data-participant-1="Desktop" data-participant-2="Win"><polygon fill="#181818" points="710.2485,1446.4743,720.2485,1450.4743,710.2485,1454.4743,714.2485,1450.4743" style="stroke:#181818;stroke-width:1;"/><line style="stroke:#181818;stroke-width:1;" x1="385.4811" x2="716.2485" y1="1450.4743" y2="1450.4743"/><text fill="#000000" font-family="'Noto Serif CJK SC'" font-size="13" lengthAdjust="spacing" textLength="214.6822" x="446.5237" y="1426.0753">&#25353;&#26041;&#21521;&#30721;&#22686;&#20943; left/top/width/height</text><text fill="#000000" font-family="'Noto Serif CJK SC'" font-size="13" lengthAdjust="spacing" textLength="141.0891" x="483.3203" y="1444.7563">&#37325;&#31639; windowBody &#23610;&#23544;</text></g><g class="message" data-participant-1="User" data-participant-2="Desktop"><polygon fill="#181818" points="373.4811,1479.1554,383.4811,1483.1554,373.4811,1487.1554,377.4811,1483.1554" style="stroke:#181818;stroke-width:1;"/><line style="stroke:#181818;stroke-width:1;" x1="55.4738" x2="379.4811" y1="1483.1554" y2="1483.1554"/><text fill="#000000" font-family="'Noto Serif CJK SC'" font-size="13" lengthAdjust="spacing" textLength="145.2102" x="147.8724" y="1477.4374">mouseup / mouseleave</text></g><g class="message" data-participant-1="Desktop" data-participant-2="Desktop"><line style="stroke:#181818;stroke-width:1;" x1="385.4811" x2="427.4811" y1="1515.8364" y2="1515.8364"/><line style="stroke:#181818;stroke-width:1;" x1="427.4811" x2="427.4811" y1="1515.8364" y2="1528.8364"/><line style="stroke:#181818;stroke-width:1;" x1="386.4811" x2="427.4811" y1="1528.8364" y2="1528.8364"/><polygon fill="#181818" points="396.4811,1524.8364,386.4811,1528.8364,396.4811,1532.8364,392.4811,1528.8364" style="stroke:#181818;stroke-width:1;"/><text fill="#000000" font-family="'Noto Serif CJK SC'" font-size="13" lengthAdjust="spacing" textLength="89.9471" x="392.4811" y="1510.1184">cleanScaling()</text></g><rect fill="#EEEEEE" height="3" style="stroke:#EEEEEE;stroke-width:1;" width="1020.0886" x="0" y="1559.2484"/><line style="stroke:#000000;stroke-width:1;" x1="0" x2="1020.0886" y1="1559.2484" y2="1559.2484"/><line style="stroke:#000000;stroke-width:1;" x1="0" x2="1020.0886" y1="1562.2484" y2="1562.2484"/><rect fill="#EEEEEE" height="26.824" style="stroke:#000000;stroke-width:2;" width="116.6611" x="451.7137" y="1546.8364"/><text fill="#000000" font-family="'Noto Sans CJK SC'" font-size="13" font-weight="bold" lengthAdjust="spacing" textLength="99.7101" x="457.7137" y="1565.9164">5. Max / Normal</text><g class="message" data-participant-1="User" data-participant-2="Win"><polygon fill="#181818" points="710.2485,1604.3414,720.2485,1608.3414,710.2485,1612.3414,714.2485,1608.3414" style="stroke:#181818;stroke-width:1;"/><line style="stroke:#181818;stroke-width:1;" x1="55.4738" x2="716.2485" y1="1608.3414" y2="1608.3414"/><text fill="#000000" font-family="'Noto Serif CJK SC'" font-size="13" lengthAdjust="spacing" textLength="129.7921" x="323.9651" y="1602.6234">btnMax mousedown</text></g><path d="M332.3403,1623.3414 L394.6693,1623.3414 L394.6693,1634.0224 L384.6693,1644.0224 L332.3403,1644.0224 L332.3403,1623.3414" fill="#EEEEEE" style="stroke:#000000;stroke-width:1.5;"/><rect fill="none" height="324.7429" style="stroke:#000000;stroke-width:1.5;" width="598.9165" x="332.3403" y="1623.3414"/><text fill="#000000" font-family="'Noto Serif CJK SC'" font-size="13" font-weight="bold" lengthAdjust="spacing" textLength="17.329" x="347.3403" y="1639.3044">alt</text><text fill="#000000" font-family="'Noto Serif CJK SC'" font-size="11" font-weight="bold" lengthAdjust="spacing" textLength="135.772" x="409.6693" y="1638.0023">[isMax = false (&#26410;&#26368;&#22823;&#21270;)]</text><g class="message" data-participant-1="Win" data-participant-2="Win"><line style="stroke:#181818;stroke-width:1;" x1="722.2485" x2="764.2485" y1="1688.1913" y2="1688.1913"/><line style="stroke:#181818;stroke-width:1;" x1="764.2485" x2="764.2485" y1="1688.1913" y2="1701.1913"/><line style="stroke:#181818;stroke-width:1;" x1="723.2485" x2="764.2485" y1="1701.1913" y2="1701.1913"/><polygon fill="#181818" points="733.2485,1697.1913,723.2485,1701.1913,733.2485,1705.1913,729.2485,1701.1913" style="stroke:#181818;stroke-width:1;"/><text fill="#000000" font-family="'Noto Serif CJK SC'" font-size="13" lengthAdjust="spacing" textLength="78.2731" x="784.7456" y="1663.7923">isMax = true</text><text fill="#000000" font-family="'Noto Serif CJK SC'" font-size="13" lengthAdjust="spacing" textLength="189.2672" x="729.2485" y="1682.4733">lastPos/lastSize = &#24403;&#21069;&#22352;&#26631;&#23610;&#23544;</text></g><g class="message" data-participant-1="Win" data-participant-2="Desktop"><polygon fill="#181818" points="396.4811,1729.8723,386.4811,1733.8723,396.4811,1737.8723,392.4811,1733.8723" style="stroke:#181818;stroke-width:1;"/><line style="stroke:#181818;stroke-width:1;" x1="390.4811" x2="721.2485" y1="1733.8723" y2="1733.8723"/><text fill="#000000" font-family="'Noto Serif CJK SC'" font-size="13" lengthAdjust="spacing" textLength="236.1063" x="435.8117" y="1728.1543">showWinMaxMinAnima(&#24403;&#21069; &#8594; &#20840;&#23631;)</text></g><g class="message" data-participant-1="Win" data-participant-2="Win"><line style="stroke:#181818;stroke-width:1;" x1="722.2485" x2="764.2485" y1="1766.5534" y2="1766.5534"/><line style="stroke:#181818;stroke-width:1;" x1="764.2485" x2="764.2485" y1="1766.5534" y2="1779.5534"/><line style="stroke:#181818;stroke-width:1;" x1="723.2485" x2="764.2485" y1="1779.5534" y2="1779.5534"/><polygon fill="#181818" points="733.2485,1775.5534,723.2485,1779.5534,733.2485,1783.5534,729.2485,1779.5534" style="stroke:#181818;stroke-width:1;"/><text fill="#000000" font-family="'Noto Serif CJK SC'" font-size="13" lengthAdjust="spacing" textLength="190.0082" x="729.2485" y="1760.8354">setTimeout(350ms) &#20889;&#20840;&#23631;&#26679;&#24335;</text></g><line style="stroke:#000000;stroke-width:1;stroke-dasharray:2,2;" x1="332.3403" x2="931.2568" y1="1788.5534" y2="1788.5534"/><text fill="#000000" font-family="'Noto Serif CJK SC'" font-size="11" font-weight="bold" lengthAdjust="spacing" textLength="132.802" x="337.3403" y="1801.2143">[isMax = true (&#24050;&#26368;&#22823;&#21270;)]</text><g class="message" data-participant-1="Win" data-participant-2="Win"><line style="stroke:#181818;stroke-width:1;" x1="722.2485" x2="764.2485" y1="1848.7223" y2="1848.7223"/><line style="stroke:#181818;stroke-width:1;" x1="764.2485" x2="764.2485" y1="1848.7223" y2="1861.7223"/><line style="stroke:#181818;stroke-width:1;" x1="723.2485" x2="764.2485" y1="1861.7223" y2="1861.7223"/><polygon fill="#181818" points="733.2485,1857.7223,723.2485,1861.7223,733.2485,1865.7223,729.2485,1861.7223" style="stroke:#181818;stroke-width:1;"/><text fill="#000000" font-family="'Noto Serif CJK SC'" font-size="13" lengthAdjust="spacing" textLength="81.7831" x="755.9246" y="1824.3233">isMax = false</text><text fill="#000000" font-family="'Noto Serif CJK SC'" font-size="13" lengthAdjust="spacing" textLength="135.1351" x="729.2485" y="1843.0043">end = lastPos/lastSize</text></g><g class="message" data-participant-1="Win" data-participant-2="Desktop"><polygon fill="#181818" points="396.4811,1890.4033,386.4811,1894.4033,396.4811,1898.4033,392.4811,1894.4033" style="stroke:#181818;stroke-width:1;"/><line style="stroke:#181818;stroke-width:1;" x1="390.4811" x2="721.2485" y1="1894.4033" y2="1894.4033"/><text fill="#000000" font-family="'Noto Serif CJK SC'" font-size="13" lengthAdjust="spacing" textLength="236.1063" x="435.8117" y="1888.6853">showWinMaxMinAnima(&#20840;&#23631; &#8594; &#21407;&#26679;)</text></g><g class="message" data-participant-1="Win" data-participant-2="Win"><line style="stroke:#181818;stroke-width:1;" x1="722.2485" x2="764.2485" y1="1927.0843" y2="1927.0843"/><line style="stroke:#181818;stroke-width:1;" x1="764.2485" x2="764.2485" y1="1927.0843" y2="1940.0843"/><line style="stroke:#181818;stroke-width:1;" x1="723.2485" x2="764.2485" y1="1940.0843" y2="1940.0843"/><polygon fill="#181818" points="733.2485,1936.0843,723.2485,1940.0843,733.2485,1944.0843,729.2485,1940.0843" style="stroke:#181818;stroke-width:1;"/><text fill="#000000" font-family="'Noto Serif CJK SC'" font-size="13" lengthAdjust="spacing" textLength="177.0082" x="729.2485" y="1921.3663">setTimeout(350ms) &#24674;&#22797;&#26679;&#24335;</text></g><rect fill="#EEEEEE" height="3" style="stroke:#EEEEEE;stroke-width:1;" width="1020.0886" x="0" y="1977.4963"/><line style="stroke:#000000;stroke-width:1;" x1="0" x2="1020.0886" y1="1977.4963" y2="1977.4963"/><line style="stroke:#000000;stroke-width:1;" x1="0" x2="1020.0886" y1="1980.4963" y2="1980.4963"/><rect fill="#EEEEEE" height="26.824" style="stroke:#000000;stroke-width:2;" width="113.9571" x="453.0657" y="1965.0843"/><text fill="#000000" font-family="'Noto Sans CJK SC'" font-size="13" font-weight="bold" lengthAdjust="spacing" textLength="97.0061" x="459.0657" y="1984.1643">6. Min / Normal</text><g class="message" data-participant-1="User" data-participant-2="Win"><polygon fill="#181818" points="710.2485,2022.5893,720.2485,2026.5893,710.2485,2030.5893,714.2485,2026.5893" style="stroke:#181818;stroke-width:1;"/><line style="stroke:#181818;stroke-width:1;" x1="55.4738" x2="716.2485" y1="2026.5893" y2="2026.5893"/><text fill="#000000" font-family="'Noto Serif CJK SC'" font-size="13" lengthAdjust="spacing" textLength="201.3312" x="288.1956" y="2020.8713">btnMin / Dock &#22270;&#26631; mousedown</text></g><path d="M332.3403,2041.5893 L394.6693,2041.5893 L394.6693,2052.2704 L384.6693,2062.2704 L332.3403,2062.2704 L332.3403,2041.5893" fill="#EEEEEE" style="stroke:#000000;stroke-width:1.5;"/><rect fill="none" height="279.1878" style="stroke:#000000;stroke-width:1.5;" width="607.5615" x="332.3403" y="2041.5893"/><text fill="#000000" font-family="'Noto Serif CJK SC'" font-size="13" font-weight="bold" lengthAdjust="spacing" textLength="17.329" x="347.3403" y="2057.5523">alt</text><text fill="#000000" font-family="'Noto Serif CJK SC'" font-size="11" font-weight="bold" lengthAdjust="spacing" textLength="75.6024" x="409.6693" y="2056.2502">[isMin = true]</text><g class="message" data-participant-1="Win" data-participant-2="Desktop"><polygon fill="#181818" points="396.4811,2083.7582,386.4811,2087.7582,396.4811,2091.7582,392.4811,2087.7582" style="stroke:#181818;stroke-width:1;"/><line style="stroke:#181818;stroke-width:1;" x1="390.4811" x2="721.2485" y1="2087.7582" y2="2087.7582"/><text fill="#000000" font-family="'Noto Serif CJK SC'" font-size="13" lengthAdjust="spacing" textLength="235.6773" x="436.0262" y="2082.0402">showWinMaxMinAnima(min &#8594; &#21407;&#26679;)</text></g><g class="message" data-participant-1="Win" data-participant-2="Win"><line style="stroke:#181818;stroke-width:1;" x1="722.2485" x2="764.2485" y1="2120.4393" y2="2120.4393"/><line style="stroke:#181818;stroke-width:1;" x1="764.2485" x2="764.2485" y1="2120.4393" y2="2133.4393"/><line style="stroke:#181818;stroke-width:1;" x1="723.2485" x2="764.2485" y1="2133.4393" y2="2133.4393"/><polygon fill="#181818" points="733.2485,2129.4393,723.2485,2133.4393,733.2485,2137.4393,729.2485,2133.4393" style="stroke:#181818;stroke-width:1;"/><text fill="#000000" font-family="'Noto Serif CJK SC'" font-size="13" lengthAdjust="spacing" textLength="198.6533" x="729.2485" y="2114.7213">isMin = false, visibility = visible</text></g><g class="message" data-participant-1="Win" data-participant-2="Desktop"><polygon fill="#181818" points="396.4811,2162.1203,386.4811,2166.1203,396.4811,2170.1203,392.4811,2166.1203" style="stroke:#181818;stroke-width:1;"/><line style="stroke:#181818;stroke-width:1;" x1="390.4811" x2="721.2485" y1="2166.1203" y2="2166.1203"/><text fill="#000000" font-family="'Noto Serif CJK SC'" font-size="13" lengthAdjust="spacing" textLength="198.1072" x="454.8112" y="2160.4023">optWinActive(win) (&#24674;&#22797;&#20026;&#39030;&#23618;)</text></g><line style="stroke:#000000;stroke-width:1;stroke-dasharray:2,2;" x1="332.3403" x2="939.9018" y1="2175.1203" y2="2175.1203"/><text fill="#000000" font-family="'Noto Serif CJK SC'" font-size="11" font-weight="bold" lengthAdjust="spacing" textLength="75.0964" x="337.3403" y="2187.7812">[isTop = true]</text><g class="message" data-participant-1="Win" data-participant-2="Win"><line style="stroke:#181818;stroke-width:1;" x1="722.2485" x2="764.2485" y1="2216.6082" y2="2216.6082"/><line style="stroke:#181818;stroke-width:1;" x1="764.2485" x2="764.2485" y1="2216.6082" y2="2229.6082"/><line style="stroke:#181818;stroke-width:1;" x1="723.2485" x2="764.2485" y1="2229.6082" y2="2229.6082"/><polygon fill="#181818" points="733.2485,2225.6082,723.2485,2229.6082,733.2485,2233.6082,729.2485,2229.6082" style="stroke:#181818;stroke-width:1;"/><text fill="#000000" font-family="'Noto Serif CJK SC'" font-size="13" lengthAdjust="spacing" textLength="198.4842" x="729.2485" y="2210.8902">isMin = true, visibility = hidden</text></g><g class="message" data-participant-1="Win" data-participant-2="Desktop"><polygon fill="#181818" points="396.4811,2258.2892,386.4811,2262.2892,396.4811,2266.2892,392.4811,2262.2892" style="stroke:#181818;stroke-width:1;"/><line style="stroke:#181818;stroke-width:1;" x1="390.4811" x2="721.2485" y1="2262.2892" y2="2262.2892"/><text fill="#000000" font-family="'Noto Serif CJK SC'" font-size="13" lengthAdjust="spacing" textLength="262.1063" x="422.8117" y="2256.5712">showWinMaxMinAnima(&#21407;&#26679; &#8594; &#26700;&#38754;&#24213;&#37096;)</text></g><line style="stroke:#000000;stroke-width:1;stroke-dasharray:2,2;" x1="332.3403" x2="939.9018" y1="2271.2892" y2="2271.2892"/><text fill="#000000" font-family="'Noto Serif CJK SC'" font-size="11" font-weight="bold" lengthAdjust="spacing" textLength="78.0664" x="337.3403" y="2283.9501">[isTop = false]</text><g class="message" data-participant-1="Win" data-participant-2="Desktop"><polygon fill="#181818" points="396.4811,2308.7771,386.4811,2312.7771,396.4811,2316.7771,392.4811,2312.7771" style="stroke:#181818;stroke-width:1;"/><line style="stroke:#181818;stroke-width:1;" x1="390.4811" x2="721.2485" y1="2312.7771" y2="2312.7771"/><text fill="#000000" font-family="'Noto Serif CJK SC'" font-size="13" lengthAdjust="spacing" textLength="198.1072" x="454.8112" y="2307.0591">optWinActive(win) (&#20165;&#21796;&#36215;&#32622;&#39030;)</text></g><rect fill="#EEEEEE" height="3" style="stroke:#EEEEEE;stroke-width:1;" width="1020.0886" x="0" y="2350.1891"/><line style="stroke:#000000;stroke-width:1;" x1="0" x2="1020.0886" y1="2350.1891" y2="2350.1891"/><line style="stroke:#000000;stroke-width:1;" x1="0" x2="1020.0886" y1="2353.1891" y2="2353.1891"/><rect fill="#EEEEEE" height="26.824" style="stroke:#000000;stroke-width:2;" width="89.4521" x="465.3182" y="2337.7771"/><text fill="#000000" font-family="'Noto Sans CJK SC'" font-size="13" font-weight="bold" lengthAdjust="spacing" textLength="72.5011" x="471.3182" y="2356.8571">7 Close Win</text><g class="message" data-participant-1="User" data-participant-2="Win"><polygon fill="#181818" points="710.2485,2395.2821,720.2485,2399.2821,710.2485,2403.2821,714.2485,2399.2821" style="stroke:#181818;stroke-width:1;"/><line style="stroke:#181818;stroke-width:1;" x1="55.4738" x2="716.2485" y1="2399.2821" y2="2399.2821"/><text fill="#000000" font-family="'Noto Serif CJK SC'" font-size="13" lengthAdjust="spacing" textLength="118.2351" x="329.7436" y="2393.5641">btnClose mouseup</text></g><g class="message" data-participant-1="Win" data-participant-2="Desktop"><polygon fill="#181818" points="396.4811,2427.9631,386.4811,2431.9631,396.4811,2435.9631,392.4811,2431.9631" style="stroke:#181818;stroke-width:1;"/><line style="stroke:#181818;stroke-width:1;" x1="390.4811" x2="721.2485" y1="2431.9631" y2="2431.9631"/><text fill="#000000" font-family="'Noto Serif CJK SC'" font-size="13" lengthAdjust="spacing" textLength="114.9981" x="496.3658" y="2426.2451">optWinClose(win)</text></g><g class="message" data-participant-1="Desktop" data-participant-2="Desktop"><line style="stroke:#181818;stroke-width:1;" x1="385.4811" x2="427.4811" y1="2483.3252" y2="2483.3252"/><line style="stroke:#181818;stroke-width:1;" x1="427.4811" x2="427.4811" y1="2483.3252" y2="2496.3252"/><line style="stroke:#181818;stroke-width:1;" x1="386.4811" x2="427.4811" y1="2496.3252" y2="2496.3252"/><polygon fill="#181818" points="396.4811,2492.3252,386.4811,2496.3252,396.4811,2500.3252,392.4811,2496.3252" style="stroke:#181818;stroke-width:1;"/><text fill="#000000" font-family="'Noto Serif CJK SC'" font-size="13" lengthAdjust="spacing" textLength="127.4781" x="410.2587" y="2458.9261">allWindows.remove</text><text fill="#000000" font-family="'Noto Serif CJK SC'" font-size="13" lengthAdjust="spacing" textLength="163.0332" x="392.4811" y="2477.6072">reorderWindows &#25490;&#38500;&#33258;&#24049;</text></g><g class="message" data-participant-1="Desktop" data-participant-2="Win"><polygon fill="#181818" points="710.2485,2525.0062,720.2485,2529.0062,710.2485,2533.0062,714.2485,2529.0062" style="stroke:#181818;stroke-width:1;"/><line style="stroke:#181818;stroke-width:1;" x1="385.4811" x2="716.2485" y1="2529.0062" y2="2529.0062"/><text fill="#000000" font-family="'Noto Serif CJK SC'" font-size="13" lengthAdjust="spacing" textLength="235.3263" x="436.2017" y="2523.2882">removeChild(win.ui.win) (&#21024;&#38500; DOM)</text></g><g class="message" data-participant-1="Desktop" data-participant-2="Win"><polygon fill="#181818" points="710.2485,2557.6872,720.2485,2561.6872,710.2485,2565.6872,714.2485,2561.6872" style="stroke:#181818;stroke-width:1;"/><line style="stroke:#181818;stroke-width:1;" x1="385.4811" x2="716.2485" y1="2561.6872" y2="2561.6872"/><text fill="#000000" font-family="'Noto Serif CJK SC'" font-size="13" lengthAdjust="spacing" textLength="195.1172" x="456.3062" y="2555.9692">&#26032;&#26411;&#23614;&#31383;&#21475; activeWindow(true)</text></g><g class="message" data-participant-1="Desktop" data-participant-2="Dock"><polygon fill="#181818" points="950.6308,2590.3682,960.6308,2594.3682,950.6308,2598.3682,954.6308,2594.3682" style="stroke:#181818;stroke-width:1;"/><line style="stroke:#181818;stroke-width:1;" x1="385.4811" x2="956.6308" y1="2594.3682" y2="2594.3682"/><text fill="#000000" font-family="'Noto Serif CJK SC'" font-size="13" lengthAdjust="spacing" textLength="109.6031" x="619.2544" y="2588.6502">removeIcon(win)</text></g><!--SRC=[hLTRJnj757xthpZYoLOTcoHDeqQYKWAjH2iWggagLNuPl8CzPJthxewvfAfacXX26ySfpGqrIHs2b3Hj2JGA40Zyc9HPs_-YPsPy0o-Kg9KYPNPypdSktxaCWWcRmXJZbZC5_kCRzOVBrPilvF9LU5kuZV-W-loUB3-f_h3X5sRzLxErtJ_yUnjokon_sGk5l0d6SyGbMV3eDtdAKtI8UXv9quisItD8KIwesobcqN6IjyKd3XV394kXPzWH3YIeoyQX_zFF8D7V4uGwghmyh4Iurz8vHYKXPZ32CSUsWf0l4rUm5CiHBjuD_v3YyLOkfeJZlXj-I-Luv04soIpwZjWTIfteH9c4dYyywYPvUCZ9U_JZIQGmqWF40tKTohMZHi710UfD22UNv8s35coS3ykEZ7sTv5_gGjDYU3meCk2a9YuHD3rAl8d6Xm74SoZKrmUdOz3lKYAeKeQ-lf3o2Kvzf3yl0ATJy1wub6DiWpmSmI3yHzVgXGfMxFvEKUvigqAF2rKPY1qtLN_9iMQW-jisM6mo4b982DY80K4DdF5xD6UBC6f5CM7MJ1GyGKJUGoWqvV_uflQaw5Vcwylt_Ofg3pp7_HiBzSNLUADzAkKcld5u357nD98Jo3QRfF5-s_5eV8XCnuSOJ_B6xsXvm2Nf1BLfIiGJAM9JSmurtMmXfgaOfbD6vxBZCS4S7fwAGYRIATkEZbWD0oeiZ8BOjldsOhcym6oQ77qrY4cOnYilSm07YJ4WWobb1o52-YuWGWp8f8wXgAB6P4YMNleF2dAjB6_SDScAQAhFnC3a1E8mYjQwoCwgyaJNE8JDYDhVsV6lbVTtIzNTrG0UdPp0EuFPy3Ge8Ivrt1RVdXACCGlTbSMD_TqbOwc-L9Bht_zTcAtFb-JrkNgn15TECPMXRaA8DjZ8iN3pD0BmTcuHcAUZ0dKLXUhJdVhI2Z1knBjXF2eC1-4plRszo0itQJeR0rKQmVtGBFJENDKB2_jRVmRa1otqvrrNeQKPJuU_LTJ3TnYwrRYAgGkvjeufRXbgwrlcXAEbqvoSM_HVFeugz56MfGxMrEdUh7T4yckhQtBt3kfFqeJ0qO3Seqrz3B2epIXPD5Dy9jSBaO2ygV4Mi-cuY0kTxoOUfZ1iJKV1ceaS1PtFeNrziYavI4fRCeM_yLRIr1pOAkfXqhZ2Al5db-LAIHONiDmrQU_7u7FgiIj7Z35qyL0MQtklgs_km_dSDCYvuj7agT7GuWvZOouE2Pm05-3qgGyrbxNLFInnRRlXqCcO_5_vwgO9Ez-_-rhU-gbQcPNBZ-Hy6PgSuPIsH2QUeIoT4KcEBLTTlGSTerkkRSiNM_-Tn6RoJ6ETYm6EOTGTTjmiiRjP6XDS2RGpH6o1NQtk-c2Ss1wMfV_WkHfkAqznk4L200U6VrDMJO0ajuadS637rVy9HKyVoDsVvK99FhobngG9iWNHGNt6KVCUiN32NkGiIy96KOyPtHZbBjljTWoVFQVw4UjgoSZwbKtvfXoYAe1E5x79Dl_wzsXqv4cEInC_3WTrKl-r8yR_cx-YGoVmtpHPqtbkQH8_G19H_dWIjO3UMcOZTLEgcbJdu8J-Pr7c6EURY3fLKPXa7XjZDXCpUAS_x413NGiCwqi7lR-rNN-yWHifqcIjlLgEictMpW7J6MPPb9-K8XsQZjByqI2txzIlFZlaWOxmXB6e1zhjbTghJLpV64waHU9vqA-Yu5c919fV6yr-rDxNGiUi_OvtZwjdL98VV0c0VtCHLtHj_hdSNEyUO4QfFyDiIxyPyYncmfBNAsgp3umC1Mmd_-wQ_-1tkRPdtXK1ZuM0rvOnrNvm_GC0]--></g></svg>